<svg width="137" height="100" viewBox="0 0 137 100" fill="none" xmlns="http://www.w3.org/2000/svg">
    <g clip-path="url(#clip0)">
        <path d="M94.1992 29.6072C88.1818 28.0911 82.0468 27.0985 75.8614 26.6402C69.6592 26.0552 63.4569 25.7418 57.3786 25.6582C51.2232 25.559 45.0671 25.7961 38.9371 26.3686C33.001 26.8284 27.1638 28.166 21.6119 30.3385C19.2197 31.2529 17.0076 32.5901 15.0787 34.2875C14.3834 34.9398 13.8275 35.7291 13.4456 36.6068C13.0401 37.5046 12.7884 38.4655 12.7013 39.4484C12.2464 43.0631 15.9264 48.0986 20.6195 51.588C25.5185 55.2086 30.8196 58.238 36.4148 60.6143C42.0592 63.1457 47.8854 65.2411 53.8433 66.8826V67.2796C47.6087 66.4711 41.4439 65.186 35.4017 63.435C29.2158 61.7319 23.2329 59.3496 17.5597 56.331C14.5343 54.7068 11.7504 52.66 9.28995 50.2508C6.31635 47.3989 4.56512 43.4841 4.41088 39.3439C4.39902 37.1868 4.8357 35.0513 5.69267 33.0757C6.57999 31.0825 7.89325 29.3129 9.53808 27.8938C12.4321 25.5773 15.8012 23.9426 19.3997 23.1091C25.7612 21.6939 32.2579 20.9932 38.7716 21.0196C45.0823 20.9809 51.3903 21.2878 57.6681 21.939C63.8841 22.5658 70.0864 23.4434 76.2749 24.5717C82.4564 25.5849 88.5424 27.1226 94.4687 29.1684L94.1992 29.6072Z" fill="#FCE100"/>
        <path d="M41.9965 68.6167C48.0149 70.1258 54.1501 71.1115 60.3347 71.5629C66.537 72.1479 72.7393 72.4822 78.9417 72.5657C85.0764 72.6638 91.2123 72.4266 97.3214 71.8554C103.243 71.39 109.066 70.0526 114.605 67.8855C117.018 66.9788 119.246 65.6333 121.179 63.9156C121.873 63.265 122.435 62.4844 122.833 61.6172C123.259 60.7191 123.511 59.7477 123.578 58.7547C124.012 55.1608 120.332 50.1253 115.639 46.6359C110.745 43.0131 105.451 39.977 99.864 37.5887C94.2073 35.0694 88.3756 32.9743 82.415 31.3204V30.9026C88.6439 31.7139 94.8022 33.0062 100.836 34.768C107.018 36.473 113 38.8478 118.678 41.8511C121.698 43.4837 124.481 45.5297 126.948 47.9314C129.923 50.7911 131.673 54.7127 131.826 58.8591C131.83 61.0112 131.408 63.1422 130.586 65.1274C129.675 67.1114 128.349 68.8722 126.7 70.2883C123.829 72.5755 120.499 74.2013 116.941 75.0521C110.576 76.4336 104.079 77.0993 97.5692 77.0371C91.2654 77.0868 84.9635 76.7799 78.6936 76.1178C72.4913 75.491 66.289 74.6134 60.0867 73.4851C53.9245 72.4863 47.8585 70.9554 41.9552 68.9093L41.9965 68.6167Z" fill="#FCE100"/>
        <path d="M76.2755 49.9791C76.2795 51.4529 75.8501 52.8948 75.0421 54.1216C74.234 55.3485 73.0836 56.3052 71.7366 56.8701C70.3897 57.4351 68.907 57.5829 67.4768 57.2948C66.0466 57.0068 64.7334 56.2958 63.7036 55.2522C62.6739 54.2086 61.9742 52.8793 61.6933 51.4331C61.4122 49.9869 61.5626 48.4888 62.1254 47.1292C62.6882 45.7696 63.6381 44.6096 64.8544 43.7963C66.0706 42.9831 67.4984 42.5534 68.9566 42.5616C70.8996 42.5671 72.7612 43.3511 74.133 44.7415C75.5049 46.132 76.2755 48.0155 76.2755 49.9791Z" fill="#02569C"/>
        <path d="M89.093 80.5475C80.461 83.4946 71.6578 85.902 62.7332 87.756C53.6522 89.7693 44.3881 90.8198 35.0915 90.8901C30.1069 91.0135 25.1321 90.3865 20.3301 89.0305C14.8073 87.6247 9.79027 84.6694 5.85798 80.5057C-2.08097 70.7898 -1.17139 57.1877 3.95586 48.0359C6.38881 43.5747 9.50041 39.5276 13.1767 36.0426C16.6039 32.7036 20.281 29.6369 24.1755 26.8701C31.7053 21.4521 39.8119 16.9036 48.3438 13.3096C65.184 6.26455 82.9639 1.77932 101.105 0V0.564155C83.2268 2.69483 65.8852 8.11197 49.9357 16.5483C42.0653 20.6626 34.7142 25.7207 28.0416 31.6131C21.6695 37.1807 16.8571 44.3428 14.0863 52.382C13.0304 55.8354 12.7618 59.4857 13.3007 63.0589C13.539 64.7132 13.9909 66.3289 14.6446 67.8646C14.934 68.6377 15.3475 69.2645 15.6369 69.9541L16.7739 71.9181C18.6338 74.8814 21.2281 77.3017 24.2995 78.9386C27.9806 80.8599 31.9034 82.2658 35.9599 83.1175C44.6695 84.6919 53.5471 85.0923 62.3609 84.3084C71.3553 83.6719 80.2865 82.3235 89.0723 80.2759L89.093 80.5475Z" fill="#02569C"/>
        <path d="M47.4755 20.2882C56.1009 17.3881 64.8891 15.0089 73.794 13.1633C82.8432 11.1694 92.0712 10.1193 101.332 10.0292C106.29 9.90071 111.24 10.4918 116.032 11.7842C121.533 13.1495 126.547 16.0448 130.503 20.142C138.629 29.7533 137.719 43.4391 132.571 52.549C130.129 56.9965 126.994 61.0178 123.288 64.4587C119.859 67.7635 116.181 70.7953 112.29 73.5268C104.753 78.8822 96.6463 83.3676 88.1213 86.8992C71.2998 93.8531 53.5572 98.2676 35.4638 100V99.4567C53.3325 97.3604 70.6804 92.0234 86.674 83.7024C94.5579 79.6142 101.941 74.6073 108.672 68.7839C115.064 63.2853 119.907 56.1786 122.71 48.1821C123.78 44.7606 124.056 41.1356 123.515 37.5887C123.276 35.9409 122.802 34.3365 122.11 32.8248L121.118 30.7354C120.725 30.1085 120.415 29.4399 119.98 28.8131C118.07 25.8711 115.443 23.475 112.352 21.8553C108.652 20.0036 104.733 18.6345 100.691 17.7809C91.9937 16.2249 83.1309 15.8315 74.3315 16.6108C65.3614 17.2467 56.4525 18.574 47.6823 20.5807L47.4755 20.2882Z" fill="#02569C"/>
    </g>
    <defs>
        <clipPath id="clip0">
            <rect width="137" height="100" fill="white"/>
        </clipPath>
    </defs>
</svg>
