<svg width="102" height="102" viewBox="0 0 102 102" fill="none" xmlns="http://www.w3.org/2000/svg">
    <path d="M100.068 38.0109C100.845 37.3934 102 37.9711 102 38.9473V79.6875C102 84.9668 97.7168 89.25 92.4375 89.25H9.5625C4.2832 89.25 0 84.9668 0 79.6875V38.9672C0 37.9711 1.13555 37.4133 1.93242 38.0309C6.39492 41.4973 12.3117 45.9 32.632 60.6621C36.8355 63.7301 43.9277 70.1848 51 70.1449C58.1121 70.2047 65.3438 63.6105 69.3879 60.6621C89.7082 45.9 95.6051 41.4773 100.068 38.0109ZM51 63.75C55.6219 63.8297 62.2758 57.9328 65.6227 55.5023C92.059 36.3176 94.0711 34.6441 100.167 29.8629C101.323 28.9664 102 27.5719 102 26.0977V22.3125C102 17.0332 97.7168 12.75 92.4375 12.75H9.5625C4.2832 12.75 0 17.0332 0 22.3125V26.0977C0 27.5719 0.677344 28.9465 1.83281 29.8629C7.92891 34.6242 9.94102 36.3176 36.3773 55.5023C39.7242 57.9328 46.3781 63.8297 51 63.75Z" fill="white" fill-opacity="0.5"/>
</svg>
