<svg width="68" height="81" viewBox="0 0 68 81" fill="none" xmlns="http://www.w3.org/2000/svg">
    <path d="M57.8152 15.3615C51.4554 8.71699 42.9857 5.0625 33.9848 5.0625C15.4062 5.0625 0.288393 20.8195 0.288393 40.1836C0.288393 46.3693 1.83661 52.4127 4.78125 57.7441L0 75.9375L17.8652 71.049C22.783 73.8492 28.3232 75.3205 33.9696 75.3205H33.9848C52.5482 75.3205 68 59.5635 68 40.1994C68 30.818 64.175 22.0061 57.8152 15.3615ZM33.9848 69.4037C28.9455 69.4037 24.0125 67.9957 19.717 65.3379L18.7 64.7051L8.10536 67.6002L10.9286 56.8266L10.2607 55.7191C7.45268 51.068 5.98036 45.7049 5.98036 40.1836C5.98036 24.0943 18.5482 10.9951 34 10.9951C41.483 10.9951 48.5107 14.0326 53.7929 19.5539C59.075 25.0752 62.3232 32.4 62.308 40.1994C62.308 56.3045 49.4214 69.4037 33.9848 69.4037ZM49.3455 47.54C48.5107 47.0971 44.367 44.9771 43.5929 44.6924C42.8188 44.3918 42.2571 44.2494 41.6955 45.1353C41.1339 46.0213 39.525 47.983 39.0241 48.5842C38.5384 49.1695 38.0375 49.2486 37.2027 48.8057C32.2545 46.227 29.0063 44.202 25.7429 38.3643C24.8777 36.8139 26.608 36.9246 28.217 33.5707C28.4902 32.9854 28.3536 32.4791 28.1411 32.0361C27.9286 31.5932 26.2438 27.2742 25.5455 25.5182C24.8625 23.8096 24.1643 24.0469 23.6482 24.0152C23.1625 23.9836 22.6009 23.9836 22.0393 23.9836C21.4777 23.9836 20.567 24.2051 19.7929 25.0752C19.0187 25.9611 16.8482 28.0811 16.8482 32.4C16.8482 36.7189 19.8688 40.8955 20.2786 41.4809C20.7036 42.0662 26.2134 50.9256 34.6679 54.7383C40.0107 57.143 42.1054 57.3486 44.7768 56.9373C46.4009 56.6842 49.7554 54.8174 50.4536 52.7607C51.1518 50.7041 51.1518 48.948 50.9393 48.5842C50.742 48.1887 50.1804 47.9672 49.3455 47.54Z" fill="white" fill-opacity="0.5"/>
</svg>
