<svg width="40" height="45" viewBox="0 0 40 45" fill="none" xmlns="http://www.w3.org/2000/svg">
    <path d="M4.28571 3H35.7143C38.0804 3 40 4.87165 40 7.17857V37.8214C40 40.1283 38.0804 42 35.7143 42H4.28571C1.91964 42 0 40.1283 0 37.8214V7.17857C0 4.87165 1.91964 3 4.28571 3ZM15.2411 36.4025C15.9911 36.533 16.2679 36.0804 16.2679 35.706C16.2679 35.2359 16.25 32.8333 16.25 30.892C16.25 29.5339 16.7143 28.6721 17.2589 28.2194C13.9554 27.8625 10.4732 27.4185 10.4732 21.8558C10.4732 20.2714 11.0536 19.4792 12 18.4607C11.8482 18.0864 11.3393 16.5455 12.1518 14.5433C13.3929 14.169 16.2321 16.1016 16.2321 16.1016C17.4107 15.7795 18.6875 15.6141 19.9464 15.6141C21.2054 15.6141 22.4821 15.7795 23.6607 16.1016C23.6607 16.1016 26.5 14.169 27.7411 14.5433C28.5536 16.5368 28.0536 18.0777 27.8929 18.4607C28.8393 19.4792 29.2857 20.2714 29.2857 21.8558C29.2857 27.3924 25.9554 27.8625 22.6518 28.2194C23.0804 28.5938 23.4643 29.2379 23.5982 30.1607C24.4464 30.535 26.6161 31.1792 27.9107 28.9507C28.7232 27.5752 30.1875 27.4621 30.1875 27.4621C31.6339 27.4446 30.2857 28.35 30.2857 28.35C29.3214 28.7853 28.6429 30.4567 28.6429 30.4567C27.7768 33.0422 23.6339 32.1717 23.6339 32.1717C23.6339 33.3817 23.6161 35.3491 23.6161 35.706C23.6161 36.0804 23.8839 36.533 24.6429 36.4025C30.5357 34.4786 34.6607 29.0116 34.6607 22.6219C34.6607 14.6304 28.3929 8.56272 20.1964 8.56272C12 8.56272 5.35714 14.6304 5.35714 22.6219C5.34821 29.0116 9.34821 34.4873 15.2411 36.4025ZM24 31.0835C24.1696 31.1183 24.3304 31.0487 24.3482 30.9355C24.3661 30.8049 24.25 30.6917 24.0804 30.6569C23.9107 30.6395 23.75 30.7092 23.7321 30.8223C23.7054 30.9355 23.8214 31.0487 24 31.0835ZM24.8482 31.0051C24.8482 31.1183 24.9821 31.2141 25.1607 31.2141C25.3571 31.2315 25.4911 31.1357 25.4911 31.0051C25.4911 30.892 25.3571 30.7962 25.1786 30.7962C25.0089 30.7788 24.8482 30.8746 24.8482 31.0051ZM26.0714 30.9094C26.1071 31.0225 26.2857 31.0748 26.4375 31.0225C26.6071 30.9877 26.7232 30.8571 26.6875 30.744C26.6518 30.6308 26.4732 30.5786 26.3214 30.6134C26.1429 30.6656 26.0268 30.7962 26.0714 30.9094ZM27.1696 30.4393C27.25 30.535 27.4196 30.5176 27.5536 30.3871C27.6875 30.2739 27.7232 30.1085 27.6339 30.0301C27.5536 29.9344 27.3839 29.9518 27.25 30.0824C27.1339 30.1955 27.0893 30.3696 27.1696 30.4393ZM27.9821 29.6471C28.0625 29.6993 28.2143 29.6471 28.3125 29.5165C28.4107 29.3859 28.4107 29.2379 28.3125 29.177C28.2143 29.0987 28.0625 29.1596 27.9821 29.2902C27.8839 29.4208 27.8839 29.5775 27.9821 29.6471ZM28.5625 28.8027C28.6429 28.881 28.7768 28.8375 28.875 28.7504C28.9732 28.6373 28.9911 28.5067 28.9107 28.4458C28.8304 28.3674 28.6964 28.4109 28.5982 28.498C28.5 28.6112 28.4821 28.7417 28.5625 28.8027ZM29.1607 28.1585C29.1964 28.2368 29.3125 28.2542 29.4107 28.1933C29.5268 28.1411 29.5804 28.0453 29.5446 27.967C29.5089 27.9147 29.4107 27.8886 29.2946 27.9321C29.1786 27.9931 29.125 28.0888 29.1607 28.1585Z" fill="white" fill-opacity="0.7"/>
</svg>
